<svg id="Layer_1" data-name="Layer 1" xmlns="http://www.w3.org/2000/svg" viewBox="0 0 358.93 82.78"><defs><style>.cls-1{fill:#a51d41;}.cls-2{fill:#fff;}</style></defs><path class="cls-1" d="M467,214.13a16.2,16.2,0,0,0-6.78,1.49,13.75,13.75,0,0,0-3.25-1.44,59.58,59.58,0,0,0-16.64-2.59,40.37,40.37,0,0,0-18.41,4.2,27.18,27.18,0,0,0,1.83-19.25c-3.29-11.56-13.62-19-26.33-19h0A35,35,0,0,0,392,178c-8.16,1.28-13.51,6.34-17.81,10.41-4.87,4.61-7.45,6.82-12.69,6.82a30.21,30.21,0,0,1-8.6-1.5A14,14,0,0,0,344,194a16.16,16.16,0,0,0-27.47,7.84v-4.27c0-8.34-5.73-14.16-13.92-14.16H289.71V184a15.88,15.88,0,0,0-4.59-.67h-6.9l-2.32,2.42a13.5,13.5,0,0,0-7.72-2.42h-13v.12a20,20,0,0,0-2.21-.12H239.7v.1a22,22,0,0,0-5.34-.67,23.41,23.41,0,0,0-11.87,3.07,12.93,12.93,0,0,0-4.21-2v-.44h-2.69l-.69,0H201.12v0H191.05a14.26,14.26,0,0,0-5.25,1,20.4,20.4,0,0,0-8.17-1.6,23.87,23.87,0,0,0-12.26,3.27,12.91,12.91,0,0,0-4.29-2.19v-.51H139.19c-8.8,0-15,5.94-15,14.45v16.76a13.18,13.18,0,0,0,13.6,13.35h.95a23.93,23.93,0,0,0-2,9.78,22.45,22.45,0,0,0,22.78,22.6,20.1,20.1,0,0,0,10.94-3.07,21.75,21.75,0,0,0,11.27,3.07,23.65,23.65,0,0,0,11.94-3,13.9,13.9,0,0,0,8,2.46h12.77v-.19a17.64,17.64,0,0,0,2.64.19h23.17v-.19a17.45,17.45,0,0,0,2.64.19h12.38a26,26,0,0,0,4,.32H262a17.86,17.86,0,0,0,9.9-2.55,23.12,23.12,0,0,0,11.13,2.8,19.83,19.83,0,0,0,11.8-3.65,14.15,14.15,0,0,0,9.06,3.08h12.95v-.43a12.85,12.85,0,0,0,3.24.43h13.63v-.18a22.85,22.85,0,0,0,5.74.75,23.67,23.67,0,0,0,11.94-3,13.85,13.85,0,0,0,7.95,2.46h12.78v-.19a17.45,17.45,0,0,0,2.64.19h12.67v-8.41a28.18,28.18,0,0,0,16.94,5.34,36.47,36.47,0,0,0,5.37-.41c8.07-1.23,13.42-6.11,17.71-10,4.9-4.48,7.5-6.64,12.85-6.64a32.09,32.09,0,0,1,8.74,1.47,13.56,13.56,0,0,0,6.43.33A16.09,16.09,0,1,0,467,214.13Z" transform="translate(-124.24 -177.51)"/><path class="cls-2" d="M149.62,205.6v-2.1H141v-4.59h6.55a3.31,3.31,0,0,0,3.56-3.17v-2.38H139.19c-3.27,0-4.95,1.42-4.95,4.45v16.76c0,2.28,1.46,3.35,3.6,3.35h3.27v-9.26h5.59A2.9,2.9,0,0,0,149.62,205.6Z" transform="translate(-124.24 -177.51)"/><path class="cls-2" d="M156.88,217.92h3.63V196.53a3.13,3.13,0,0,0-3-3.17h-3.77v20.75C153.75,216.6,155.35,217.92,156.88,217.92Z" transform="translate(-124.24 -177.51)"/><path class="cls-2" d="M185.18,212.9v-2.53H185c-1.21,1.28-4.13,2.28-6.76,2.28-4,0-7.05-2.38-7.05-7.4,0-4,2.92-6.62,6.9-6.62,2.71,0,5.77.92,7,2.52h.17v-2.52c0-3.46-2.84-5.84-7.65-5.84-8.19,0-13.21,5.94-13.21,13.1,0,7.76,6.06,12.6,12.78,12.6C182,218.49,185.18,216.07,185.18,212.9Z" transform="translate(-124.24 -177.51)"/><path class="cls-2" d="M201,217.92V199h3.48a3.78,3.78,0,0,0,3.78-3.28v-2.35H191.05a3.53,3.53,0,0,0-3.81,3.28V199h7V214.4c0,2.59,1.78,3.52,3.81,3.52Z" transform="translate(-124.24 -177.51)"/><path class="cls-2" d="M214.25,217.92h3.64V196.53a3.14,3.14,0,0,0-3-3.17h-3.78v20.75C211.12,216.6,212.72,217.92,214.25,217.92Z" transform="translate(-124.24 -177.51)"/><path class="cls-2" d="M234.36,192.79c-7.9,0-12.56,5.23-12.56,13.17,0,7.69,5.12,12.53,11.82,12.53,8,0,12.53-5.05,12.53-13.21C246.15,197.27,240.38,192.79,234.36,192.79Zm-.1,20.18c-3.7,0-5.7-2.49-5.7-7.69,0-4.13,1.78-7,5.13-7,3.77,0,5.69,2.24,5.69,7.62C239.38,210.41,237.32,213,234.26,213Z" transform="translate(-124.24 -177.51)"/><path class="cls-2" d="M271.6,196.53a3.31,3.31,0,0,0-3.42-3.17h-3v13.95l-4.56-8.9c-1.67-3.31-4.06-5-7.65-5H249.7v20.79a3.69,3.69,0,0,0,3.81,3.77h2.78V203.15a9.77,9.77,0,0,0,1.21,2l4.16,7.54c2.21,4,4.49,5.2,7.27,5.2h2.67Z" transform="translate(-124.24 -177.51)"/><path class="cls-2" d="M276.68,217.92h2.74c.29-1.53.72-4,1.25-5.8h8.47c.29,1,.5,2,.68,2.88.43,2.21,1.71,2.92,4.16,2.92H297c-1.1-8.37-4.8-18.08-7.15-22a5.38,5.38,0,0,0-4.77-2.56h-2.64c-4.27,4.45-8.93,18-8.93,21.53C273.55,216.71,274.51,217.92,276.68,217.92Zm8.3-18.44a48.24,48.24,0,0,1,2.77,7.33h-5.62A43.3,43.3,0,0,1,285,199.48Z" transform="translate(-124.24 -177.51)"/><path class="cls-2" d="M311.46,212.58h-1.07c-3.06,0-3.91-1-3.91-4.16v-10.9c0-2.77-1.25-4.16-3.92-4.16h-2.85v15.52c0,6.19,2.67,9.33,8.9,9.33h2.85c3.88,0,5.37-1.57,5.37-4.06v-2.32h-.17A16.2,16.2,0,0,1,311.46,212.58Z" transform="translate(-124.24 -177.51)"/><path class="cls-2" d="M160,224.6c-8.19,0-13.21,5.94-13.21,13.1,0,7.76,6.05,12.6,12.78,12.6,4.81,0,8-2.42,8-5.59v-2.53h-.18c-1.21,1.28-4.13,2.28-6.77,2.28-4,0-7-2.39-7-7.41,0-4,2.92-6.62,6.9-6.62,2.71,0,5.77.93,7,2.53h.17v-2.53C167.61,227,164.77,224.6,160,224.6Z" transform="translate(-124.24 -177.51)"/><path class="cls-2" d="M182.49,224.6c-7.9,0-12.57,5.23-12.57,13.17,0,7.69,5.13,12.53,11.82,12.53,8,0,12.53-5.06,12.53-13.21S188.5,224.6,182.49,224.6Zm-.11,20.18c-3.7,0-5.69-2.49-5.69-7.69,0-4.13,1.78-7,5.12-7,3.78,0,5.7,2.24,5.7,7.62C187.51,242.22,185.44,244.78,182.38,244.78Z" transform="translate(-124.24 -177.51)"/><path class="cls-2" d="M216.3,225.17h-3v14l-4.55-8.9c-1.68-3.31-4.06-5.05-7.66-5.05h-3.27V246a3.69,3.69,0,0,0,3.81,3.78h2.77V235a10,10,0,0,0,1.21,2l4.17,7.55c2.21,4,4.48,5.2,7.26,5.2h2.67v-21.4A3.31,3.31,0,0,0,216.3,225.17Z" transform="translate(-124.24 -177.51)"/><path class="cls-2" d="M242.11,225.17h-3v14l-4.56-8.9c-1.67-3.31-4.06-5.05-7.65-5.05h-3.28V246a3.69,3.69,0,0,0,3.81,3.78h2.78V235a9.51,9.51,0,0,0,1.21,2l4.16,7.55c2.21,4,4.49,5.2,7.27,5.2h2.67v-21.4A3.31,3.31,0,0,0,242.11,225.17Z" transform="translate(-124.24 -177.51)"/><path class="cls-2" d="M249.69,229.22a47,47,0,0,0-.43,6.62V240c0,6.8,3.56,10.08,10,10.08H262c4.34,0,5.73-1.35,5.73-3.6v-2.6a22.24,22.24,0,0,1-5.73.68h-1.78c-3.42,0-4.27-.93-4.27-3.56v-.89h5.8c2.38,0,3.7-1,3.7-2.78v-2.45H256a39.35,39.35,0,0,1,.25-4.17h7.47c2.85,0,4.1-1.56,4.1-3.91v-1.6H254.42C252,225.17,250.15,226.09,249.69,229.22Z" transform="translate(-124.24 -177.51)"/><path class="cls-2" d="M283.5,224.6c-8.19,0-13.21,5.94-13.21,13.1,0,7.76,6.06,12.6,12.78,12.6,4.81,0,8-2.42,8-5.59v-2.53h-.18c-1.21,1.28-4.13,2.28-6.76,2.28-4,0-7.05-2.39-7.05-7.41,0-4,2.92-6.62,6.9-6.62,2.71,0,5.77.93,7,2.53h.18v-2.53C291.16,227,288.31,224.6,283.5,224.6Z" transform="translate(-124.24 -177.51)"/><path class="cls-2" d="M293.11,228.48v2.35h7V246.2c0,2.6,1.78,3.53,3.81,3.53h2.95v-18.9h3.49a3.78,3.78,0,0,0,3.78-3.28V225.2H296.92A3.52,3.52,0,0,0,293.11,228.48Z" transform="translate(-124.24 -177.51)"/><path class="cls-2" d="M320.76,225.17H317v20.75c0,2.49,1.6,3.81,3.13,3.81h3.63v-21.4A3.13,3.13,0,0,0,320.76,225.17Z" transform="translate(-124.24 -177.51)"/><path class="cls-2" d="M340.23,224.6c-7.9,0-12.56,5.23-12.56,13.17,0,7.69,5.12,12.53,11.82,12.53,8,0,12.53-5.06,12.53-13.21S346.25,224.6,340.23,224.6Zm-.1,20.18c-3.7,0-5.7-2.49-5.7-7.69,0-4.13,1.78-7,5.13-7,3.77,0,5.69,2.24,5.69,7.62C345.25,242.22,343.19,244.78,340.13,244.78Z" transform="translate(-124.24 -177.51)"/><path class="cls-2" d="M374.05,225.17h-3v14l-4.56-8.9c-1.67-3.31-4.06-5.05-7.65-5.05h-3.28V246a3.69,3.69,0,0,0,3.81,3.78h2.78V235a9.51,9.51,0,0,0,1.21,2l4.16,7.55c2.21,4,4.49,5.2,7.27,5.2h2.67v-21.4A3.31,3.31,0,0,0,374.05,225.17Z" transform="translate(-124.24 -177.51)"/><circle class="cls-2" cx="208.06" cy="27.66" r="6.19"/><ellipse class="cls-2" cx="342.74" cy="52.6" rx="6.19" ry="5.98"/><path class="cls-2" d="M454.14,223.78c-21.8-6.38-31.62,2.59-38.79,9.15-3,2.74-5.6,5.12-8.27,5.52-7.21,1.09-10.82-2.34-11.72-5.61-1-3.79.91-8.84,7.61-11.57a3.93,3.93,0,0,0,1.87-1.58c8.86-5.13,11.13-13.88,9.27-20.41-2-7-9.12-13.25-20.58-11.45-5.1.8-8.7,4.2-12.5,7.79-6.71,6.35-13.65,12.91-31.06,7.63a4,4,0,0,0-2.32,7.66c21.86,6.62,31.69-2.68,38.88-9.47,3-2.84,5.59-5.29,8.24-5.71,7.06-1.1,10.65,2.24,11.65,5.74,1.15,4.05-.75,9.43-7.6,12.32A4,4,0,0,0,397,215.3c-8.75,4.92-11.1,13.36-9.36,19.67,1.69,6.13,7.44,11.69,16.76,11.69a26.43,26.43,0,0,0,3.87-.3c5.07-.77,8.83-4.2,12.47-7.53,6.72-6.14,13.67-12.49,31.14-7.37a4,4,0,0,0,2.25-7.68Z" transform="translate(-124.24 -177.51)"/></svg>